<svg width="110" height="37" viewBox="0 0 110 37" fill="none" xmlns="http://www.w3.org/2000/svg">
<path d="M42.2803 9.65332C43.3381 9.65332 44.3723 9.77964 45.3828 10.0322C46.3934 10.2849 47.349 10.6484 48.249 11.1221C49.1648 11.5958 50.0181 12.1793 50.8076 12.874C51.5971 13.553 52.2916 14.3193 52.8916 15.1719L40.7646 29.7871C41.0172 29.866 41.2699 29.9206 41.5225 29.9521C41.7751 29.9679 42.0277 29.9766 42.2803 29.9766C42.9119 29.9766 43.5202 29.8895 44.1045 29.7158C44.6886 29.5422 45.2331 29.2971 45.7383 28.9814C46.2594 28.6498 46.7175 28.2548 47.1123 27.7969C47.5229 27.3231 47.8548 26.8019 48.1074 26.2334L52.8447 30.9951C52.2447 31.8477 51.5492 32.613 50.7598 33.292C49.986 33.971 49.1414 34.5478 48.2256 35.0215C47.3255 35.4952 46.37 35.8501 45.3594 36.0869C44.3646 36.3395 43.3382 36.4658 42.2803 36.4658C40.496 36.4658 38.8143 36.1348 37.2354 35.4717C35.672 34.8085 34.2976 33.8845 33.1133 32.7002C31.9448 31.5159 31.0218 30.1098 30.3428 28.4834C29.6638 26.8412 29.3242 25.041 29.3242 23.083C29.3243 21.0777 29.6638 19.2458 30.3428 17.5879C31.0217 15.9302 31.945 14.517 33.1133 13.3486C34.2976 12.1801 35.672 11.2715 37.2354 10.624C38.8143 9.97668 40.496 9.65333 42.2803 9.65332ZM67.5771 9.65332C68.6351 9.65332 69.67 9.77957 70.6807 10.0322C71.6912 10.2849 72.6468 10.6484 73.5469 11.1221C74.4625 11.5957 75.3152 12.1795 76.1045 12.874C76.894 13.553 77.5894 14.3192 78.1895 15.1719L66.0615 29.7871C66.3141 29.866 66.5668 29.9206 66.8193 29.9521C67.0718 29.9679 67.3247 29.9766 67.5771 29.9766C68.2087 29.9766 68.8172 29.8895 69.4014 29.7158C69.9856 29.5421 70.5308 29.2973 71.0361 28.9814C71.5571 28.6499 72.0145 28.2547 72.4092 27.7969C72.8197 27.3231 73.1516 26.8019 73.4043 26.2334L78.1416 30.9951C77.5417 31.8476 76.8469 32.6131 76.0576 33.292C75.2839 33.971 74.4383 34.5478 73.5225 35.0215C72.6226 35.495 71.6675 35.8501 70.6572 36.0869C69.6624 36.3396 68.6351 36.4658 67.5771 36.4658C65.7929 36.4658 64.1112 36.1348 62.5322 35.4717C60.969 34.8085 59.5954 33.8844 58.4111 32.7002C57.2426 31.5159 56.3187 30.1099 55.6396 28.4834C54.9608 26.8412 54.6211 25.0409 54.6211 23.083C54.6211 21.0777 54.9607 19.2458 55.6396 17.5879C56.3186 15.93 57.2427 14.5171 58.4111 13.3486C59.5954 12.1801 60.9689 11.2715 62.5322 10.624C64.1112 9.97665 65.7929 9.65338 67.5771 9.65332ZM13.5957 2.02637C14.8432 2.02637 16.0436 2.19184 17.1963 2.52344C18.349 2.83926 19.4231 3.2974 20.418 3.89746C21.4285 4.48169 22.344 5.19247 23.165 6.0293C24.0019 6.85033 24.7127 7.76589 25.2969 8.77637C25.8969 9.78691 26.3551 10.8688 26.6709 12.0215C27.0025 13.1742 27.168 14.3746 27.168 15.6221C27.168 16.7906 27.0188 17.9278 26.7188 19.0332C26.4345 20.1385 26.0156 21.1888 25.4629 22.1836C24.9261 23.1782 24.263 24.0939 23.4736 24.9307C22.6841 25.7676 21.7994 26.4945 20.8203 27.1104L24.5869 35.9922H17.3623L14.4014 29.1475L6.79785 29.1943V35.9922H0V2.02637H13.5957ZM87.9717 35.9922H81.458V0.53418H87.9717V35.9922ZM96.6172 13.6328C97.6594 12.6854 98.8435 11.9584 100.17 11.4531C101.496 10.932 102.871 10.6719 104.292 10.6719H110V17.1143H104.292C103.613 17.1143 102.973 17.2406 102.373 17.4932C101.773 17.7458 101.252 18.0931 100.81 18.5352C100.367 18.9772 100.02 19.4987 99.7676 20.0986C99.5149 20.6987 99.3887 21.3386 99.3887 22.0176V35.9922H92.9219V10.624H94.4854L96.6172 13.6328ZM42.2803 16.1904C41.396 16.1904 40.5591 16.3569 39.7695 16.6885C38.9959 17.0043 38.3166 17.4616 37.7324 18.0615C37.1639 18.6616 36.7144 19.3885 36.3828 20.2412C36.0513 21.078 35.8848 22.0252 35.8848 23.083C35.8848 23.3199 35.8934 23.5886 35.9092 23.8887C35.9408 24.1887 35.98 24.4967 36.0273 24.8125C36.0905 25.1124 36.1613 25.4044 36.2402 25.6885C36.3192 25.9727 36.4215 26.2262 36.5479 26.4473L44.0801 16.4512C43.7803 16.3407 43.4805 16.2699 43.1807 16.2383C42.8964 16.2067 42.5961 16.1904 42.2803 16.1904ZM67.5771 16.1904C66.693 16.1905 65.8558 16.3569 65.0664 16.6885C64.293 17.0042 63.6143 17.4618 63.0303 18.0615C62.4618 18.6616 62.0113 19.3885 61.6797 20.2412C61.3482 21.078 61.1827 22.0252 61.1826 23.083C61.1826 23.3199 61.1903 23.5887 61.2061 23.8887C61.2376 24.1887 61.2768 24.4967 61.3242 24.8125C61.3873 25.1124 61.4582 25.4044 61.5371 25.6885C61.6161 25.9727 61.7194 26.2262 61.8457 26.4473L69.3779 16.4512C69.0779 16.3406 68.7776 16.2699 68.4775 16.2383C68.1933 16.2067 67.8929 16.1904 67.5771 16.1904ZM6.79785 22.4199H13.5957C14.5274 22.4199 15.4045 22.2468 16.2256 21.8994C17.0466 21.5362 17.7651 21.0465 18.3809 20.4307C18.9966 19.8149 19.4778 19.0963 19.8252 18.2754C20.1884 17.4385 20.3701 16.5537 20.3701 15.6221C20.3701 14.6904 20.1884 13.8143 19.8252 12.9932C19.4778 12.1562 18.9967 11.4293 18.3809 10.8135C17.7651 10.1978 17.0465 9.71652 16.2256 9.36914C15.4045 9.00595 14.5274 8.82422 13.5957 8.82422H6.79785V22.4199Z" fill="#FF4A17"/>
</svg>
